<?xml version="1.0" encoding="utf-8"?>
<!-- Generator: Adobe Illustrator 22.0.1, SVG Export Plug-In . SVG Version: 6.00 Build 0)  -->
<svg version="1.1" id="Layer_1" xmlns="http://www.w3.org/2000/svg" xmlns:xlink="http://www.w3.org/1999/xlink" x="0px" y="0px"
	 viewBox="0 0 143.2 144" style="enable-background:new 0 0 143.2 144;" xml:space="preserve">
<path d="M133,96.5c-0.5,0-1.2-0.1-2.2-0.3c-0.9-0.2-1.8-0.6-2.6-1.2c-0.8-0.7-2.1-2.3-3.9-5l-19.4-30l7.1-8.2
	c1.4-1.5,2.6-2.6,3.6-3.1c1-0.6,2-0.9,3-1.1c0.9-0.2,1.8-0.3,2.4-0.3c0.7,0,1.3-0.1,1.9-0.1V46h-18.1v1.1l3.3,0.2
	c0.9,0.1,1.5,0.3,2,0.6c0.5,0.3,0.7,0.8,0.7,1.4c0,0.8-0.4,1.7-1.3,2.9c-0.9,1.2-2.6,3.3-5.2,6.3c-2.6,3-5.1,5.9-7.6,8.8
	c-2.5,2.8-4.4,5.1-5.8,6.7V54.9l0.1-3.3c0.1-1.6,0.5-2.7,1-3.2c0.5-0.5,1.5-0.9,2.9-1l2.8-0.2V46H66.8h-0.9h-18v1.1
	c0.6,0,1.3,0.1,2,0.1c0.7,0,1.5,0.1,2.2,0.3c0.8,0.2,1.4,0.5,2,1C54.7,49,55,49.8,55,51c0,1-0.3,2.6-0.9,4.7
	c-0.6,2.1-1.8,5.5-3.5,10.3c-1.7,4.8-3.4,9.4-5,13.8c-2.7-7.2-4.8-12.7-6.2-16.4c-1.4-3.7-2.4-6.6-3.1-8.7c-0.7-2.1-1-3.5-1-4.4
	c0-1.2,0.3-2,1-2.2c0.6-0.2,1.5-0.4,2.5-0.6l3.1-0.3V46H9v1.1l2.9,0.3c1.2,0.1,2.2,0.5,2.8,1.2s1.4,1.7,2.1,3.2l2.2,5.5L33.5,98h7.3
	l14.3-40.5l2.1-5.5c0.7-1.6,1.4-2.7,2.3-3.3c0.9-0.6,1.9-1,3.1-1.2c1.2-0.2,2.1-0.3,2.7-0.3c0.4,0,0.8,0,1.1-0.1l3.2,0.2
	c1.5,0.2,2.4,0.6,2.9,1.2c0.5,0.6,0.8,1.6,1,3.2l0.1,3.3v33.7L73.5,92c-0.1,1.5-0.5,2.5-1,3.1c-0.5,0.6-1.5,1-2.9,1.2l-3.5,0.3v1.1
	h31.7v-1.1l-2.6-0.2c-1.5-0.2-2.4-0.6-2.9-1.1c-0.5-0.5-0.8-1.6-1-3.2l-0.1-3.3v-13l1.9-2.3c0.8,1.2,2.1,3.2,3.9,5.8
	s3.2,4.8,4.3,6.4c1.1,1.6,2,3.1,2.9,4.4c0.9,1.3,1.4,2.3,1.6,2.9c0.2,0.6,0.4,1.2,0.4,1.6c0,0.7-0.2,1.2-0.7,1.3
	c-0.5,0.2-1.2,0.3-2.2,0.4l-3,0.1v1.1h34.2v-1.1C133.9,96.6,133.5,96.5,133,96.5z"/>
</svg>
